<mxfile host="" modified="2020-06-19T09:30:57.746Z" agent="5.0 (Macintosh; Intel Mac OS X 10_15_5) AppleWebKit/537.36 (KHTML, like Gecko) Code/1.46.0 Chrome/78.0.3904.130 Electron/7.3.1 Safari/537.36" etag="V3zm0TtIaLJUPa9wHOWa" version="13.1.3">
    <diagram id="6hGFLwfOUW9BJ-s0fimq" name="Page-1">
        <mxGraphModel dx="1056" dy="826" grid="1" gridSize="10" guides="1" tooltips="1" connect="1" arrows="1" fold="1" page="1" pageScale="1" pageWidth="1169" pageHeight="1654" math="0" shadow="0">
            <root>
                <mxCell id="0"/>
                <mxCell id="1" parent="0"/>
                <mxCell id="7" style="edgeStyle=orthogonalEdgeStyle;rounded=1;orthogonalLoop=1;jettySize=auto;html=1;exitX=0.5;exitY=1;exitDx=0;exitDy=0;entryX=0.5;entryY=0;entryDx=0;entryDy=0;fontSize=18;fontColor=#000000;" edge="1" parent="1" source="2" target="5">
                    <mxGeometry relative="1" as="geometry"/>
                </mxCell>
                <mxCell id="8" style="edgeStyle=orthogonalEdgeStyle;rounded=1;orthogonalLoop=1;jettySize=auto;html=1;exitX=0.5;exitY=1;exitDx=0;exitDy=0;entryX=0.5;entryY=0;entryDx=0;entryDy=0;fontSize=18;fontColor=#000000;" edge="1" parent="1" source="2" target="6">
                    <mxGeometry relative="1" as="geometry"/>
                </mxCell>
                <mxCell id="2" value="Landing Page&lt;br style=&quot;font-size: 10px&quot;&gt;&lt;font size=&quot;1&quot; color=&quot;#999999&quot;&gt;&lt;i&gt;'gameplay_home'&lt;/i&gt;&lt;/font&gt;" style="rounded=1;whiteSpace=wrap;html=1;fillColor=#FFCCCC;strokeColor=#000000;fontColor=#000000;" vertex="1" parent="1">
                    <mxGeometry x="520" y="80" width="120" height="60" as="geometry"/>
                </mxCell>
                <mxCell id="3" value="&lt;b&gt;&lt;u&gt;Workflow 1&lt;br&gt;&lt;/u&gt;&lt;/b&gt;&lt;br style=&quot;font-size: 14px&quot;&gt;&lt;span style=&quot;font-size: 14px&quot;&gt;&lt;i&gt;Login / Register&lt;/i&gt;&lt;/span&gt;" style="text;html=1;strokeColor=#666666;fillColor=#f5f5f5;align=left;verticalAlign=top;whiteSpace=wrap;rounded=1;fontColor=#333333;fontSize=18;spacingLeft=5;" vertex="1" parent="1">
                    <mxGeometry x="100" y="60" width="180" height="80" as="geometry"/>
                </mxCell>
                <mxCell id="28" style="edgeStyle=orthogonalEdgeStyle;rounded=1;orthogonalLoop=1;jettySize=auto;html=1;exitX=0.5;exitY=1;exitDx=0;exitDy=0;entryX=0.5;entryY=0;entryDx=0;entryDy=0;fontSize=18;fontColor=#000000;" edge="1" parent="1" source="5" target="10">
                    <mxGeometry relative="1" as="geometry"/>
                </mxCell>
                <mxCell id="30" style="edgeStyle=orthogonalEdgeStyle;rounded=1;orthogonalLoop=1;jettySize=auto;html=1;exitX=0.5;exitY=1;exitDx=0;exitDy=0;entryX=0.5;entryY=0;entryDx=0;entryDy=0;fontSize=18;fontColor=#000000;" edge="1" parent="1" source="5" target="9">
                    <mxGeometry relative="1" as="geometry"/>
                </mxCell>
                <mxCell id="34" style="edgeStyle=orthogonalEdgeStyle;rounded=1;orthogonalLoop=1;jettySize=auto;html=1;exitX=0.5;exitY=1;exitDx=0;exitDy=0;entryX=0.5;entryY=0;entryDx=0;entryDy=0;fontSize=18;fontColor=#000000;" edge="1" parent="1" source="5" target="11">
                    <mxGeometry relative="1" as="geometry"/>
                </mxCell>
                <mxCell id="5" value="Login&lt;br style=&quot;font-size: 10px&quot;&gt;&lt;font size=&quot;1&quot; color=&quot;#999999&quot;&gt;&lt;i&gt;'account_login'&lt;/i&gt;&lt;/font&gt;" style="rounded=1;whiteSpace=wrap;html=1;fillColor=#FFCCCC;strokeColor=#000000;fontColor=#000000;" vertex="1" parent="1">
                    <mxGeometry x="280" y="220" width="120" height="60" as="geometry"/>
                </mxCell>
                <mxCell id="46" style="edgeStyle=orthogonalEdgeStyle;rounded=1;orthogonalLoop=1;jettySize=auto;html=1;exitX=0.5;exitY=1;exitDx=0;exitDy=0;entryX=0.5;entryY=0;entryDx=0;entryDy=0;fontSize=18;fontColor=#000000;" edge="1" parent="1" source="6" target="12">
                    <mxGeometry relative="1" as="geometry"/>
                </mxCell>
                <mxCell id="47" style="edgeStyle=orthogonalEdgeStyle;rounded=1;orthogonalLoop=1;jettySize=auto;html=1;exitX=0.5;exitY=1;exitDx=0;exitDy=0;entryX=0.5;entryY=0;entryDx=0;entryDy=0;fontSize=18;fontColor=#000000;" edge="1" parent="1" source="6" target="13">
                    <mxGeometry relative="1" as="geometry"/>
                </mxCell>
                <mxCell id="6" value="Register&lt;br style=&quot;font-size: 10px&quot;&gt;&lt;font size=&quot;1&quot; color=&quot;#999999&quot;&gt;&lt;i&gt;'account_signup'&lt;/i&gt;&lt;/font&gt;" style="rounded=1;whiteSpace=wrap;html=1;fillColor=#FFCCCC;strokeColor=#000000;fontColor=#000000;" vertex="1" parent="1">
                    <mxGeometry x="760" y="220" width="120" height="60" as="geometry"/>
                </mxCell>
                <mxCell id="31" style="edgeStyle=orthogonalEdgeStyle;rounded=1;orthogonalLoop=1;jettySize=auto;html=1;exitX=0.5;exitY=1;exitDx=0;exitDy=0;entryX=0.5;entryY=0;entryDx=0;entryDy=0;fontSize=18;fontColor=#000000;" edge="1" parent="1" source="9" target="15">
                    <mxGeometry relative="1" as="geometry"/>
                </mxCell>
                <mxCell id="9" value="Click Forgot Password" style="rounded=1;whiteSpace=wrap;html=1;fillColor=#f5f5f5;strokeColor=#000000;fontColor=#333333;" vertex="1" parent="1">
                    <mxGeometry x="280" y="360" width="120" height="60" as="geometry"/>
                </mxCell>
                <mxCell id="29" style="edgeStyle=orthogonalEdgeStyle;rounded=1;orthogonalLoop=1;jettySize=auto;html=1;exitX=0.5;exitY=1;exitDx=0;exitDy=0;entryX=0.5;entryY=0;entryDx=0;entryDy=0;fontSize=18;fontColor=#000000;" edge="1" parent="1" source="10" target="14">
                    <mxGeometry relative="1" as="geometry"/>
                </mxCell>
                <mxCell id="10" value="Login Success" style="rounded=1;whiteSpace=wrap;html=1;fillColor=#f5f5f5;strokeColor=#000000;fontColor=#333333;" vertex="1" parent="1">
                    <mxGeometry x="120" y="360" width="120" height="60" as="geometry"/>
                </mxCell>
                <mxCell id="33" style="edgeStyle=orthogonalEdgeStyle;rounded=1;orthogonalLoop=1;jettySize=auto;html=1;exitX=0.5;exitY=1;exitDx=0;exitDy=0;entryX=0.5;entryY=0;entryDx=0;entryDy=0;fontSize=18;fontColor=#000000;" edge="1" parent="1" source="11" target="17">
                    <mxGeometry relative="1" as="geometry"/>
                </mxCell>
                <mxCell id="11" value="Click Register" style="rounded=1;whiteSpace=wrap;html=1;fillColor=#f5f5f5;strokeColor=#000000;fontColor=#333333;" vertex="1" parent="1">
                    <mxGeometry x="440" y="360" width="120" height="60" as="geometry"/>
                </mxCell>
                <mxCell id="51" style="edgeStyle=orthogonalEdgeStyle;rounded=1;orthogonalLoop=1;jettySize=auto;html=1;exitX=0.5;exitY=1;exitDx=0;exitDy=0;entryX=0.5;entryY=0;entryDx=0;entryDy=0;fontSize=18;fontColor=#000000;" edge="1" parent="1" source="12" target="50">
                    <mxGeometry relative="1" as="geometry"/>
                </mxCell>
                <mxCell id="12" value="Register Success" style="rounded=1;whiteSpace=wrap;html=1;fillColor=#f5f5f5;strokeColor=#000000;fontColor=#333333;" vertex="1" parent="1">
                    <mxGeometry x="680" y="360" width="120" height="60" as="geometry"/>
                </mxCell>
                <mxCell id="49" value="" style="edgeStyle=orthogonalEdgeStyle;rounded=1;orthogonalLoop=1;jettySize=auto;html=1;fontSize=18;fontColor=#000000;" edge="1" parent="1" source="13" target="48">
                    <mxGeometry relative="1" as="geometry"/>
                </mxCell>
                <mxCell id="13" value="Click Login" style="rounded=1;whiteSpace=wrap;html=1;fillColor=#f5f5f5;strokeColor=#000000;fontColor=#333333;" vertex="1" parent="1">
                    <mxGeometry x="840" y="360" width="120" height="60" as="geometry"/>
                </mxCell>
                <mxCell id="14" value="Landing Page&lt;br style=&quot;font-size: 10px&quot;&gt;&lt;font size=&quot;1&quot; color=&quot;#999999&quot;&gt;&lt;i&gt;'gameplay_home'&lt;/i&gt;&lt;/font&gt;" style="rounded=1;whiteSpace=wrap;html=1;fillColor=#FFCCCC;strokeColor=#000000;fontColor=#000000;" vertex="1" parent="1">
                    <mxGeometry x="120" y="500" width="120" height="60" as="geometry"/>
                </mxCell>
                <mxCell id="32" style="edgeStyle=orthogonalEdgeStyle;rounded=1;orthogonalLoop=1;jettySize=auto;html=1;exitX=0.5;exitY=1;exitDx=0;exitDy=0;entryX=0.5;entryY=0;entryDx=0;entryDy=0;fontSize=18;fontColor=#000000;" edge="1" parent="1" source="15" target="18">
                    <mxGeometry relative="1" as="geometry"/>
                </mxCell>
                <mxCell id="35" style="edgeStyle=orthogonalEdgeStyle;rounded=1;orthogonalLoop=1;jettySize=auto;html=1;exitX=0.5;exitY=1;exitDx=0;exitDy=0;entryX=0.5;entryY=0;entryDx=0;entryDy=0;fontSize=18;fontColor=#000000;" edge="1" parent="1" source="15" target="19">
                    <mxGeometry relative="1" as="geometry"/>
                </mxCell>
                <mxCell id="15" value="Reset Password&lt;br style=&quot;font-size: 10px&quot;&gt;&lt;font size=&quot;1&quot; color=&quot;#999999&quot;&gt;&lt;i&gt;'account_reset_password'&lt;/i&gt;&lt;/font&gt;" style="rounded=1;whiteSpace=wrap;html=1;fillColor=#FFCCCC;strokeColor=#000000;fontColor=#000000;" vertex="1" parent="1">
                    <mxGeometry x="280" y="500" width="120" height="60" as="geometry"/>
                </mxCell>
                <mxCell id="17" value="Register&lt;br style=&quot;font-size: 10px&quot;&gt;&lt;font size=&quot;1&quot; color=&quot;#999999&quot;&gt;&lt;i&gt;'account_signup'&lt;/i&gt;&lt;/font&gt;" style="rounded=1;whiteSpace=wrap;html=1;fillColor=#FFCCCC;strokeColor=#000000;fontColor=#000000;" vertex="1" parent="1">
                    <mxGeometry x="440" y="500" width="120" height="60" as="geometry"/>
                </mxCell>
                <mxCell id="45" style="edgeStyle=orthogonalEdgeStyle;rounded=1;orthogonalLoop=1;jettySize=auto;html=1;exitX=0.5;exitY=1;exitDx=0;exitDy=0;entryX=0.5;entryY=0;entryDx=0;entryDy=0;fontSize=18;fontColor=#000000;" edge="1" parent="1" source="18" target="44">
                    <mxGeometry relative="1" as="geometry"/>
                </mxCell>
                <mxCell id="18" value="Click Cancel" style="rounded=1;whiteSpace=wrap;html=1;fillColor=#f5f5f5;strokeColor=#000000;fontColor=#333333;" vertex="1" parent="1">
                    <mxGeometry x="200" y="640" width="120" height="60" as="geometry"/>
                </mxCell>
                <mxCell id="56" style="edgeStyle=orthogonalEdgeStyle;rounded=1;orthogonalLoop=1;jettySize=auto;html=1;exitX=0.5;exitY=1;exitDx=0;exitDy=0;entryX=0.5;entryY=0;entryDx=0;entryDy=0;fontSize=18;fontColor=#000000;" edge="1" parent="1" source="19" target="53">
                    <mxGeometry relative="1" as="geometry"/>
                </mxCell>
                <mxCell id="19" value="Send Reset Email" style="rounded=1;whiteSpace=wrap;html=1;fillColor=#f5f5f5;strokeColor=#000000;fontColor=#333333;" vertex="1" parent="1">
                    <mxGeometry x="360" y="640" width="120" height="60" as="geometry"/>
                </mxCell>
                <mxCell id="37" style="edgeStyle=orthogonalEdgeStyle;rounded=1;orthogonalLoop=1;jettySize=auto;html=1;exitX=0.5;exitY=1;exitDx=0;exitDy=0;entryX=0.5;entryY=0;entryDx=0;entryDy=0;fontSize=18;fontColor=#000000;" edge="1" parent="1" source="20" target="21">
                    <mxGeometry relative="1" as="geometry"/>
                </mxCell>
                <mxCell id="20" value="Click Link in Email" style="rounded=1;whiteSpace=wrap;html=1;fillColor=#f5f5f5;strokeColor=#000000;fontColor=#333333;" vertex="1" parent="1">
                    <mxGeometry x="280" y="920" width="120" height="60" as="geometry"/>
                </mxCell>
                <mxCell id="38" style="edgeStyle=orthogonalEdgeStyle;rounded=1;orthogonalLoop=1;jettySize=auto;html=1;exitX=0.5;exitY=1;exitDx=0;exitDy=0;entryX=0.5;entryY=0;entryDx=0;entryDy=0;fontSize=18;fontColor=#000000;" edge="1" parent="1" source="21" target="22">
                    <mxGeometry relative="1" as="geometry"/>
                </mxCell>
                <mxCell id="40" style="edgeStyle=orthogonalEdgeStyle;rounded=1;orthogonalLoop=1;jettySize=auto;html=1;exitX=0.5;exitY=1;exitDx=0;exitDy=0;entryX=0.5;entryY=0;entryDx=0;entryDy=0;fontSize=18;fontColor=#000000;" edge="1" parent="1" source="21" target="23">
                    <mxGeometry relative="1" as="geometry"/>
                </mxCell>
                <mxCell id="21" value="Reset Password From Key&lt;br style=&quot;font-size: 10px&quot;&gt;&lt;font size=&quot;1&quot; color=&quot;#999999&quot;&gt;&lt;i&gt;'account_reset _password_from_key'&lt;/i&gt;&lt;/font&gt;" style="rounded=1;whiteSpace=wrap;html=1;fillColor=#FFCCCC;strokeColor=#000000;fontColor=#000000;" vertex="1" parent="1">
                    <mxGeometry x="280" y="1060" width="120" height="60" as="geometry"/>
                </mxCell>
                <mxCell id="39" style="edgeStyle=orthogonalEdgeStyle;rounded=1;orthogonalLoop=1;jettySize=auto;html=1;exitX=0.5;exitY=1;exitDx=0;exitDy=0;entryX=0.5;entryY=0;entryDx=0;entryDy=0;fontSize=18;fontColor=#000000;" edge="1" parent="1" source="22" target="24">
                    <mxGeometry relative="1" as="geometry"/>
                </mxCell>
                <mxCell id="22" value="Good Token" style="rounded=1;whiteSpace=wrap;html=1;fillColor=#f5f5f5;strokeColor=#000000;fontColor=#333333;" vertex="1" parent="1">
                    <mxGeometry x="200" y="1200" width="120" height="60" as="geometry"/>
                </mxCell>
                <mxCell id="41" style="edgeStyle=orthogonalEdgeStyle;rounded=1;orthogonalLoop=1;jettySize=auto;html=1;exitX=0.5;exitY=1;exitDx=0;exitDy=0;entryX=0.5;entryY=0;entryDx=0;entryDy=0;fontSize=18;fontColor=#000000;" edge="1" parent="1" source="23" target="26">
                    <mxGeometry relative="1" as="geometry"/>
                </mxCell>
                <mxCell id="23" value="Bad Token" style="rounded=1;whiteSpace=wrap;html=1;fillColor=#f5f5f5;strokeColor=#000000;fontColor=#333333;" vertex="1" parent="1">
                    <mxGeometry x="360" y="1200" width="120" height="60" as="geometry"/>
                </mxCell>
                <mxCell id="43" style="edgeStyle=orthogonalEdgeStyle;rounded=1;orthogonalLoop=1;jettySize=auto;html=1;exitX=0.5;exitY=1;exitDx=0;exitDy=0;entryX=0.5;entryY=0;entryDx=0;entryDy=0;fontSize=18;fontColor=#000000;" edge="1" parent="1" source="24" target="25">
                    <mxGeometry relative="1" as="geometry"/>
                </mxCell>
                <mxCell id="24" value="Enter New Password" style="rounded=1;whiteSpace=wrap;html=1;fillColor=#f5f5f5;strokeColor=#000000;fontColor=#333333;" vertex="1" parent="1">
                    <mxGeometry x="200" y="1340" width="120" height="60" as="geometry"/>
                </mxCell>
                <mxCell id="25" value="Login&lt;br style=&quot;font-size: 10px&quot;&gt;&lt;font size=&quot;1&quot; color=&quot;#999999&quot;&gt;&lt;i&gt;'account_login'&lt;/i&gt;&lt;/font&gt;" style="rounded=1;whiteSpace=wrap;html=1;fillColor=#FFCCCC;strokeColor=#000000;fontColor=#000000;" vertex="1" parent="1">
                    <mxGeometry x="200" y="1480" width="120" height="60" as="geometry"/>
                </mxCell>
                <mxCell id="42" style="edgeStyle=orthogonalEdgeStyle;rounded=1;orthogonalLoop=1;jettySize=auto;html=1;exitX=0.5;exitY=1;exitDx=0;exitDy=0;entryX=0.5;entryY=0;entryDx=0;entryDy=0;fontSize=18;fontColor=#000000;" edge="1" parent="1" source="26" target="27">
                    <mxGeometry relative="1" as="geometry"/>
                </mxCell>
                <mxCell id="26" value="Try Again" style="rounded=1;whiteSpace=wrap;html=1;fillColor=#f5f5f5;strokeColor=#000000;fontColor=#333333;" vertex="1" parent="1">
                    <mxGeometry x="360" y="1340" width="120" height="60" as="geometry"/>
                </mxCell>
                <mxCell id="27" value="Reset Password&lt;br style=&quot;font-size: 10px&quot;&gt;&lt;font size=&quot;1&quot; color=&quot;#999999&quot;&gt;&lt;i&gt;'account_reset_password'&lt;/i&gt;&lt;/font&gt;" style="rounded=1;whiteSpace=wrap;html=1;fillColor=#FFCCCC;strokeColor=#000000;fontColor=#000000;" vertex="1" parent="1">
                    <mxGeometry x="360" y="1480" width="120" height="60" as="geometry"/>
                </mxCell>
                <mxCell id="44" value="Login&lt;br style=&quot;font-size: 10px&quot;&gt;&lt;font size=&quot;1&quot; color=&quot;#999999&quot;&gt;&lt;i&gt;'account_login'&lt;/i&gt;&lt;/font&gt;" style="rounded=1;whiteSpace=wrap;html=1;fillColor=#FFCCCC;strokeColor=#000000;fontColor=#000000;" vertex="1" parent="1">
                    <mxGeometry x="200" y="780" width="120" height="60" as="geometry"/>
                </mxCell>
                <mxCell id="48" value="Login&lt;br style=&quot;font-size: 10px&quot;&gt;&lt;font size=&quot;1&quot; color=&quot;#999999&quot;&gt;&lt;i&gt;'account_login'&lt;/i&gt;&lt;/font&gt;" style="rounded=1;whiteSpace=wrap;html=1;fillColor=#FFCCCC;strokeColor=#000000;fontColor=#000000;" vertex="1" parent="1">
                    <mxGeometry x="840" y="500" width="120" height="60" as="geometry"/>
                </mxCell>
                <mxCell id="50" value="Landing Page&lt;br style=&quot;font-size: 10px&quot;&gt;&lt;font size=&quot;1&quot; color=&quot;#999999&quot;&gt;&lt;i&gt;'gameplay_home'&lt;/i&gt;&lt;/font&gt;" style="rounded=1;whiteSpace=wrap;html=1;fillColor=#FFCCCC;strokeColor=#000000;fontColor=#000000;" vertex="1" parent="1">
                    <mxGeometry x="680" y="500" width="120" height="60" as="geometry"/>
                </mxCell>
                <mxCell id="57" style="edgeStyle=orthogonalEdgeStyle;rounded=1;orthogonalLoop=1;jettySize=auto;html=1;exitX=0.5;exitY=1;exitDx=0;exitDy=0;entryX=0.5;entryY=0;entryDx=0;entryDy=0;fontSize=18;fontColor=#000000;" edge="1" parent="1" source="53" target="20">
                    <mxGeometry relative="1" as="geometry"/>
                </mxCell>
                <mxCell id="58" style="edgeStyle=orthogonalEdgeStyle;rounded=1;orthogonalLoop=1;jettySize=auto;html=1;exitX=0.5;exitY=1;exitDx=0;exitDy=0;entryX=0.5;entryY=0;entryDx=0;entryDy=0;fontSize=18;fontColor=#000000;" edge="1" parent="1" source="53" target="54">
                    <mxGeometry relative="1" as="geometry"/>
                </mxCell>
                <mxCell id="53" value="Reset Password Done&lt;br style=&quot;font-size: 10px&quot;&gt;&lt;font size=&quot;1&quot; color=&quot;#999999&quot;&gt;&lt;i&gt;'account_reset _password_done'&lt;/i&gt;&lt;/font&gt;" style="rounded=1;whiteSpace=wrap;html=1;fillColor=#FFCCCC;strokeColor=#000000;fontColor=#000000;" vertex="1" parent="1">
                    <mxGeometry x="360" y="780" width="120" height="60" as="geometry"/>
                </mxCell>
                <mxCell id="59" style="edgeStyle=orthogonalEdgeStyle;rounded=1;orthogonalLoop=1;jettySize=auto;html=1;exitX=0.5;exitY=1;exitDx=0;exitDy=0;entryX=0.5;entryY=0;entryDx=0;entryDy=0;fontSize=18;fontColor=#000000;" edge="1" parent="1" source="54" target="55">
                    <mxGeometry relative="1" as="geometry"/>
                </mxCell>
                <mxCell id="54" value="Click Home Page" style="rounded=1;whiteSpace=wrap;html=1;fillColor=#f5f5f5;strokeColor=#000000;fontColor=#333333;" vertex="1" parent="1">
                    <mxGeometry x="440" y="920" width="120" height="60" as="geometry"/>
                </mxCell>
                <mxCell id="55" value="Landing Page&lt;br style=&quot;font-size: 10px&quot;&gt;&lt;font size=&quot;1&quot; color=&quot;#999999&quot;&gt;&lt;i&gt;'gameplay_home'&lt;/i&gt;&lt;/font&gt;" style="rounded=1;whiteSpace=wrap;html=1;fillColor=#FFCCCC;strokeColor=#000000;fontColor=#000000;" vertex="1" parent="1">
                    <mxGeometry x="440" y="1060" width="120" height="60" as="geometry"/>
                </mxCell>
            </root>
        </mxGraphModel>
    </diagram>
</mxfile>